<svg xmlns="http://www.w3.org/2000/svg" width="157.847" height="162.491" viewBox="0 0 157.847 162.491">
  <g id="Group_135" data-name="Group 135" transform="translate(-1296 -3604)">
    <g id="Group_116" data-name="Group 116" transform="translate(310.815 24.421)">
      <g id="Group_113" data-name="Group 113" transform="translate(1028.946 3664.151)">
        <path id="Path_122" data-name="Path 122" d="M232.016,107.587a22.3,22.3,0,1,0-23.719,0" transform="translate(-184.995 -53.163)" fill="none" stroke="#0d053a" stroke-linecap="round" stroke-linejoin="round" stroke-width="2"/>
        <g id="Group_81" data-name="Group 81">
          <path id="Path_123" data-name="Path 123" d="M227.4,117.425H208.609l-2.66-18.5h24.109Z" transform="translate(-182.84 -44.503)" fill="none" stroke="#0d053a" stroke-linecap="round" stroke-linejoin="round" stroke-width="2"/>
          <path id="Path_124" data-name="Path 124" d="M220.222,117.221h-7.487l-1.06-3.686h9.607Z" transform="translate(-181.316 -40.614)" fill="none" stroke="#0d053a" stroke-linecap="round" stroke-linejoin="round" stroke-width="2"/>
          <line id="Line_4519" data-name="Line 4519" x2="27.853" transform="translate(21.236 60.752)" fill="none" stroke="#0d053a" stroke-linecap="round" stroke-linejoin="round" stroke-width="2"/>
          <line id="Line_4520" data-name="Line 4520" x2="25.193" transform="translate(22.566 66.837)" fill="none" stroke="#0d053a" stroke-linecap="round" stroke-linejoin="round" stroke-width="2"/>
          <line id="Line_4525" data-name="Line 4525" y2="7.356" transform="translate(35.162)" fill="none" stroke="#0d053a" stroke-linecap="round" stroke-linejoin="round" stroke-width="2"/>
          <line id="Line_4526" data-name="Line 4526" x1="7.355" transform="translate(62.969 35.749)" fill="none" stroke="#0d053a" stroke-linecap="round" stroke-linejoin="round" stroke-width="2"/>
          <line id="Line_4527" data-name="Line 4527" y1="5.104" x2="5.104" transform="translate(54.964 10.808)" fill="none" stroke="#0d053a" stroke-linecap="round" stroke-linejoin="round" stroke-width="2"/>
          <line id="Line_4528" data-name="Line 4528" x2="5.104" y2="5.104" transform="translate(54.964 55.713)" fill="none" stroke="#0d053a" stroke-linecap="round" stroke-linejoin="round" stroke-width="2"/>
          <line id="Line_4529" data-name="Line 4529" x2="7.355" transform="translate(0 35.749)" fill="none" stroke="#0d053a" stroke-linecap="round" stroke-linejoin="round" stroke-width="2"/>
          <line id="Line_4530" data-name="Line 4530" x1="5.104" y1="5.104" transform="translate(10.257 10.808)" fill="none" stroke="#0d053a" stroke-linecap="round" stroke-linejoin="round" stroke-width="2"/>
          <line id="Line_4531" data-name="Line 4531" x1="5.104" y2="5.104" transform="translate(10.257 55.713)" fill="none" stroke="#0d053a" stroke-linecap="round" stroke-linejoin="round" stroke-width="2"/>
        </g>
        <path id="Path_127" data-name="Path 127" d="M207.521,85.495l7.473,6.529,13.427-12.793" transform="translate(-182.422 -49.746)" fill="none" stroke="#ffa300" stroke-linecap="round" stroke-linejoin="round" stroke-width="2"/>
      </g>
      <g id="Group_115" data-name="Group 115" transform="translate(986.185 3580.579)">
        <g id="Group_114" data-name="Group 114" transform="translate(0)">
          <line id="Line_4521" data-name="Line 4521" y2="62.321" transform="translate(29.233 87.08)" fill="none" stroke="#0d053a" stroke-linecap="round" stroke-linejoin="round" stroke-width="2"/>
          <line id="Line_4522" data-name="Line 4522" x1="24.275" transform="translate(36.013 154.26)" fill="none" stroke="#0d053a" stroke-linecap="round" stroke-linejoin="round" stroke-width="2"/>
          <path id="Path_125" data-name="Path 125" d="M187.986,114.771a5.545,5.545,0,1,1-5.544-5.543A5.545,5.545,0,0,1,187.986,114.771Z" transform="translate(-151.974 40.174)" fill="none" stroke="#0d053a" stroke-linecap="round" stroke-linejoin="round" stroke-width="2"/>
          <line id="Line_4523" data-name="Line 4523" y2="62.321" transform="translate(126.615 87.08)" fill="none" stroke="#0d053a" stroke-linecap="round" stroke-linejoin="round" stroke-width="2"/>
          <line id="Line_4524" data-name="Line 4524" x2="24.275" transform="translate(95.56 154.26)" fill="none" stroke="#0d053a" stroke-linecap="round" stroke-linejoin="round" stroke-width="2"/>
          <path id="Path_126" data-name="Path 126" d="M245.969,114.771a5.545,5.545,0,1,0,5.544-5.543A5.545,5.545,0,0,0,245.969,114.771Z" transform="translate(-126.134 40.174)" fill="none" stroke="#0d053a" stroke-linecap="round" stroke-linejoin="round" stroke-width="2"/>
          <path id="Path_128" data-name="Path 128" d="M263.131,42.318V33.609l-8.937-1.139a28.89,28.89,0,0,0-4.469-10.795l5.511-7.123-6.157-6.157-7.123,5.511a28.884,28.884,0,0,0-10.794-4.469L230.022.5h-8.709l-1.139,8.937a28.89,28.89,0,0,0-10.795,4.469l-7.123-5.511L196.1,14.551l5.511,7.123a28.891,28.891,0,0,0-4.469,10.795L188.2,33.609v8.709l8.937,1.14a28.885,28.885,0,0,0,4.469,10.794L196.1,61.375l6.157,6.157,7.123-5.511a28.89,28.89,0,0,0,10.795,4.469l1.139,8.937h8.709l1.141-8.937a28.884,28.884,0,0,0,10.794-4.469l7.123,5.511,6.157-6.157-5.511-7.123a28.884,28.884,0,0,0,4.469-10.794Z" transform="translate(-147.744 -0.5)" fill="none" stroke="#0d053a" stroke-linecap="round" stroke-linejoin="round" stroke-width="2"/>
          <path id="Path_129" data-name="Path 129" d="M236.6,59.017a22.45,22.45,0,0,0,1.895,3.391l-4.29,5.544L239,72.745l5.544-4.29a22.483,22.483,0,0,0,8.4,3.478l.886,6.956h6.778l.888-6.956a22.486,22.486,0,0,0,8.4-3.478l5.544,4.29,4.793-4.793-4.29-5.544a22.486,22.486,0,0,0,3.478-8.4l6.956-.888V46.342l-6.956-.886a22.483,22.483,0,0,0-3.478-8.4l4.29-5.544-4.793-4.791L269.9,31.007a22.484,22.484,0,0,0-8.4-3.476l-.888-6.956h-6.778l-.886,6.956a22.433,22.433,0,0,0-3.317.9" transform="translate(-130.534 7.01)" fill="none" stroke="#0d053a" stroke-linecap="round" stroke-linejoin="round" stroke-width="2"/>
          <path id="Path_130" data-name="Path 130" d="M208.536,59.017a22.446,22.446,0,0,1-1.895,3.391l4.29,5.544-4.793,4.793-5.544-4.29a22.483,22.483,0,0,1-8.4,3.478l-.886,6.956h-6.778l-.888-6.956a22.486,22.486,0,0,1-8.4-3.478l-5.544,4.29L164.9,67.952l4.29-5.544a22.486,22.486,0,0,1-3.478-8.4l-6.956-.888V46.342l6.956-.886a22.483,22.483,0,0,1,3.478-8.4L164.9,31.51l4.793-4.791,5.544,4.289a22.484,22.484,0,0,1,8.4-3.476l.888-6.956h6.778l.886,6.956a22.434,22.434,0,0,1,3.317.9" transform="translate(-158.759 7.01)" fill="none" stroke="#0d053a" stroke-linecap="round" stroke-linejoin="round" stroke-width="2"/>
          <path id="Path_133" data-name="Path 133" d="M224.857,29.773a7.38,7.38,0,1,1-7.379-7.379A7.379,7.379,0,0,1,224.857,29.773Z" transform="translate(-139.553 7.69)" fill="none" stroke="#0d053a" stroke-linecap="round" stroke-linejoin="round" stroke-width="2"/>
        </g>
      </g>
      <g id="Group_112" data-name="Group 112" transform="translate(1008.037 3599.351)">
        <path id="Path_131" data-name="Path 131" d="M259.534,43.8a7.38,7.38,0,1,1-7.379-7.379A7.379,7.379,0,0,1,259.534,43.8Z" transform="translate(-148.433 -5.833)" fill="none" stroke="#ffa300" stroke-linecap="round" stroke-linejoin="round" stroke-width="2"/>
        <path id="Path_132" data-name="Path 132" d="M189.423,43.8a7.38,7.38,0,1,1-7.38-7.379A7.38,7.38,0,0,1,189.423,43.8Z" transform="translate(-174.662 -5.833)" fill="none" stroke="#ffa300" stroke-linecap="round" stroke-linejoin="round" stroke-width="2"/>
        <circle id="Ellipse_44" data-name="Ellipse 44" cx="15.962" cy="15.962" r="15.962" transform="matrix(0.189, -0.982, 0.982, 0.189, 37.38, 31.347)" fill="none" stroke="#ffa300" stroke-linecap="round" stroke-linejoin="round" stroke-width="2"/>
      </g>
    </g>
  </g>
</svg>
