<!-- Generated by IcoMoon.io -->
<svg version="1.1" xmlns="http://www.w3.org/2000/svg" width="32" height="32" viewBox="0 0 32 32">
<title>1</title>
<path d="M1.053 14.236c-0.791 0-1.053 0.618-1.053 0.931 0 0.875 0.77 0.971 0.911 1.012 0.561 0.169 0.911 0.158 0.911 0.617 0 0.28-0.235 0.496-0.506 0.496-0.458 0-0.754-0.313-0.81-0.759h-0.476v1.154h0.486v-0.213c0.243 0.202 0.537 0.294 0.85 0.294 0.617 0 1.063-0.421 1.063-1.053 0-0.73-0.443-0.897-0.901-1.032s-0.921-0.203-0.921-0.526c0-0.29 0.2-0.456 0.476-0.456 0.187 0 0.338 0.071 0.456 0.182 0.112 0.108 0.196 0.257 0.233 0.435h0.466v-1.012h-0.496v0.213c-0.183-0.174-0.426-0.283-0.688-0.283zM4.413 14.236c-0.809 0-1.711 0.552-1.711 1.741 0 1.010 0.748 1.792 1.721 1.792 0.735 0 1.322-0.396 1.518-1.204h-0.557c-0.187 0.374-0.456 0.638-0.962 0.638-0.716 0-1.113-0.558-1.113-1.205 0-0.65 0.407-1.205 1.113-1.205 0.192 0 0.388 0.065 0.547 0.172 0.159 0.104 0.287 0.245 0.334 0.435h0.486v-1.093h-0.486v0.223c-0.272-0.257-0.783-0.293-0.891-0.293zM6.286 14.307v0.466h0.364v2.46h-0.364v0.456h1.336v-0.456h-0.364v-1.073h1.205v1.073h-0.354v0.456h1.326v-0.456h-0.364v-2.46h0.364v-0.466h-1.326v0.466h0.354v0.85h-1.205v-0.85h0.364v-0.466h-1.336zM10.568 14.307v0.466h0.375l-0.84 2.46h-0.283v0.456h1.215v-0.456h-0.364l0.233-0.658h1.022l0.233 0.658h-0.375v0.456h1.245v-0.456h-0.253l-0.82-2.46h0.364v-0.466h-1.751zM13.523 14.307v0.466h0.364v2.46h-0.364v0.456h2.601v-1.012h-0.536v0.557h-1.093v-1.073h0.941v-0.537h-0.941v-0.85h1.093v0.435h0.536v-0.901h-2.601zM16.752 14.307v0.466h0.364v2.46h-0.364v0.456h1.367v-0.456h-0.395v-1.073h1.012v-0.537h-1.012v-0.85h1.134v0.435h0.537v-0.901h-2.642zM19.799 14.307v0.466h0.364v2.46h-0.364v0.456h1.367v-0.456h-0.395v-1.073h1.012v-0.537h-1.012v-0.85h1.134v0.435h0.536v-0.901h-2.642zM22.967 14.307v0.466h0.385v2.46h-0.385v0.456h2.328v-1.002h-0.537v0.547h-0.8v-2.46h0.415v-0.466h-1.407zM25.639 14.307v0.466h0.354v2.46h-0.354v0.456h2.601v-1.012h-0.537v0.557h-1.103v-1.073h0.941v-0.537h-0.941v-0.85h1.103v0.435h0.537v-0.901h-2.601zM28.777 14.307v0.466h0.364v2.46h-0.364v0.456h1.346v-0.456h-0.374v-1.073h0.364c0.249 0 0.587 0.027 0.587 0.344v1.184h0.941v-0.456h-0.334v-0.769c0-0.206-0.032-0.443-0.415-0.537v-0.010c0.355-0.149 0.526-0.366 0.526-0.759 0-0.051 0.013-0.27-0.142-0.466-0.317-0.422-0.812-0.385-1.043-0.385h-1.458zM29.749 14.773h0.324c0.317 0 0.749-0.001 0.749 0.415 0 0.455-0.342 0.506-0.678 0.506h-0.395v-0.921zM11.418 14.975h0.010l0.375 1.134h-0.769l0.385-1.134z"></path>
</svg>
