<!-- Generated by IcoMoon.io -->
<svg version="1.1" xmlns="http://www.w3.org/2000/svg" width="32" height="32" viewBox="0 0 32 32">
<title>2</title>
<path d="M4.631 15.073c-0.099 0.115-0.2 0.23-0.291 0.345 0.384-0.812 0.46-1.518 0.145-1.825-0.506-0.498-1.924 0.145-3.105 1.48-0.238 0.275-0.46 0.56-0.659 0.866l6.778-0.314c0.467-0.889 0.591-1.702 0.246-2.033-0.516-0.498-1.927 0.154-3.115 1.48zM0.628 16.063c-0.628 1.012-0.812 1.963-0.429 2.338 0.514 0.498 1.917-0.115 3.097-1.442 0.099-0.115 0.2-0.23 0.291-0.345-0.376 0.79-0.444 1.48-0.13 1.787 0.514 0.498 1.917-0.115 3.097-1.442 0.176-0.2 0.345-0.407 0.498-0.62z"></path>
<path d="M12.106 14.329h-3.604v0.614h1.326v3.267h1.035v-3.275h1.242v-0.606zM14.092 14.215h-0.008c-1.112 0-2.009 0.905-2.002 2.009s0.905 2.009 2.009 2.002 2.009-0.905 2.002-2.009c0-1.104-0.897-2.002-2.002-2.002zM14.077 17.703c-0.552 0-0.996-0.651-0.996-1.449s0.407-1.449 1.004-1.449c0.544 0.008 0.989 0.651 0.989 1.449s-0.444 1.449-0.996 1.449zM25.479 14.207h-0.008c-1.12 0-2.025 0.913-2.017 2.025 0 1.12 0.913 2.025 2.025 2.017s2.025-0.913 2.017-2.025c-0.001-1.112-0.905-2.009-2.017-2.017zM25.471 17.695c-0.552 0-0.996-0.651-0.996-1.449s0.407-1.449 1.004-1.449c0.544 0.008 0.989 0.651 0.989 1.449s-0.444 1.449-0.996 1.449zM18.325 14.329h-1.748v3.88h1.112v-0.896h0.628c2.056-0.008 1.955-2.984 0.008-2.984zM17.98 16.753h-0.291v-1.887h0.291c1.135 0 1.112 1.887 0 1.887z"></path>
<path d="M22.52 17.749c-0.674 0-1.227-0.667-1.227-1.488s0.552-1.488 1.227-1.488c0.283 0.008 0.544 0.122 0.752 0.314 0 0 0.261-0.521 0.254-0.521-0.345-0.261-0.79-0.33-1.258-0.33-1.12 0-2.025 0.905-2.025 2.025s0.905 2.025 2.025 2.025c0.368 0 0.705 0.015 1.004-0.153v-0.721c-0.1 0.2-0.476 0.337-0.752 0.337zM30.992 15.081c-0.261-0.651-0.644-0.767-1.304-0.759h-1.679v3.887h1.035v-3.32h0.529c0.246 0 0.299 0.176 0.391 0.498l0.843 2.822h1.188z"></path>
</svg>
