<!-- Generated by IcoMoon.io -->
<svg version="1.1" xmlns="http://www.w3.org/2000/svg" width="32" height="32" viewBox="0 0 32 32">
<title>3</title>
<path d="M3.587 12.892h1.295l1.096 2.416 1.132-2.416h1.295l0.855 6.216h-1.657l-0.362-2.554h-0.018l-1.242 2.597-1.242-2.597h-0.021l-0.362 2.554h-1.66l0.89-6.216z"></path>
<path d="M9.809 12.892h3.331l0.252 1.639h-1.958v0.649h1.277v1.639h-1.277v0.649h2.175l-0.422 1.639h-3.374v-6.216z"></path>
<path d="M13.808 12.892h3.832l0.163 1.572h-1.27v4.644h-1.625v-4.644h-1.27l0.17-1.572z"></path>
<path d="M18.27 12.892h2.132c0.639 0 1.146 0.17 1.526 0.514 0.376 0.344 0.564 0.837 0.564 1.479 0 0.646-0.284 1.153-0.844 1.529l1.192 2.693h-1.831l-1.096-2.565h-0.018v2.565h-1.625v-6.216zM19.895 15.812c0.316 0 0.557-0.060 0.724-0.181s0.252-0.316 0.252-0.585c0-0.27-0.085-0.465-0.252-0.589-0.167-0.121-0.408-0.181-0.724-0.181v1.536z"></path>
<path d="M29.052 17.259c-0.163 0.39-0.397 0.749-0.695 1.050-0.294 0.302-0.642 0.539-1.029 0.702-0.78 0.333-1.664 0.333-2.444 0-0.387-0.163-0.734-0.404-1.029-0.702-0.294-0.302-0.529-0.66-0.692-1.050-0.333-0.809-0.333-1.714 0-2.522 0.163-0.39 0.397-0.749 0.695-1.050 0.294-0.302 0.642-0.539 1.029-0.702 0.78-0.333 1.664-0.333 2.444 0 0.387 0.163 0.734 0.404 1.029 0.702 0.298 0.302 0.532 0.66 0.695 1.050 0.333 0.809 0.333 1.714 0 2.522h-0.004zM27.53 15.4c-0.078-0.192-0.188-0.365-0.333-0.514-0.142-0.149-0.309-0.266-0.497-0.351-0.184-0.082-0.387-0.124-0.589-0.124s-0.404 0.039-0.592 0.121c-0.184 0.078-0.351 0.195-0.493 0.341-0.142 0.149-0.255 0.319-0.333 0.507-0.16 0.394-0.16 0.837 0 1.231 0.078 0.192 0.192 0.365 0.333 0.514 0.138 0.145 0.305 0.263 0.493 0.341 0.188 0.082 0.387 0.121 0.592 0.121 0.202 0 0.404-0.043 0.592-0.124s0.355-0.202 0.497-0.351c0.436-0.451 0.568-1.125 0.33-1.71v0z"></path>
</svg>
