<!-- Generated by IcoMoon.io -->
<svg version="1.1" xmlns="http://www.w3.org/2000/svg" width="45" height="32" viewBox="0 0 45 32">
<title>4</title>
<path d="M32.533 25.8c0 0 0 0 0.431 0 0.114 0 0.163 0.008 0.163 0.179 0 0 0 0 0 5.404 0 0.301-0.894 0.609-1.52 0.609-1.309 0-2.17-0.764-2.17-2.34 0-1.056 0.683-2.332 2.015-2.332 0.398 0 0.658 0.097 0.926 0.244 0 0 0 0 0-1.56 0-0.155 0.008-0.203 0.155-0.203zM24.366 27.295c0.398 0 0.804 0.097 1.113 0.317 0.504 0.349 0.829 1.008 0.829 2.040 0 1.024-0.325 1.682-0.829 2.031-0.301 0.203-0.707 0.309-1.113 0.309-0.39 0-0.805-0.097-1.105-0.309-0.496-0.349-0.821-1.008-0.821-2.031 0-1.032 0.325-1.69 0.821-2.040 0.317-0.203 0.723-0.317 1.105-0.317zM13.883 27.295c0.406 0 0.821 0.097 1.121 0.317 0.496 0.349 0.829 1.008 0.829 2.040 0 1.024-0.333 1.682-0.829 2.031-0.317 0.203-0.715 0.309-1.121 0.309-0.39 0-0.813-0.097-1.113-0.309-0.496-0.349-0.821-1.008-0.821-2.031 0-1.032 0.325-1.69 0.821-2.040 0.317-0.203 0.723-0.317 1.113-0.317zM6.065 27.295c0.406 0 0.796 0.097 1.113 0.317 0.496 0.349 0.829 1.008 0.829 2.040 0 1.024-0.333 1.682-0.829 2.031-0.317 0.203-0.707 0.309-1.113 0.309-0.398 0-0.813-0.097-1.113-0.309-0.504-0.349-0.829-1.008-0.829-2.031 0-1.032 0.325-1.69 0.829-2.040 0.309-0.203 0.723-0.317 1.113-0.317zM34.289 27.417c0 0 0 0 0.447 0 0.13 0 0.163 0.024 0.163 0.155 0 0 0 0 0 4.136 0 0.146-0.032 0.146-0.163 0.155 0 0 0 0-0.463 0-0.13 0-0.13-0.032-0.13-0.155 0 0 0 0 0-4.136 0-0.106 0-0.155 0.146-0.155zM41.83 27.393c0 0 0 0 0.398 0 0.114 0 0.155 0.024 0.155 0.097 0 0.049-0.008 0.090-0.041 0.171-0.366 0.723-0.959 1.389-1.536 1.812 0 0 0 0 0.016 0.017 0 0 0 0 1.625 2.161 0.032 0.032 0.065 0.073 0.065 0.106 0 0.098-0.089 0.098-0.13 0.106 0 0 0 0-0.577 0-0.138 0-0.171 0-0.26-0.13 0 0 0 0-1.528-2.194 0-0.016-0.008-0.041-0.008-0.049 0 0 0.008-0.025 0.032-0.049 0.642-0.374 1.276-1.17 1.52-1.91 0.049-0.146 0.106-0.138 0.268-0.138zM8.251 27.393c0 0 0 0 0.528 0 0.13 0 0.146 0.016 0.195 0.138 0 0 0 0 1.146 3.267 0 0 0 0 1.122-3.283 0.041-0.081 0.049-0.106 0.106-0.122 0 0 0 0 0.423 0 0.041 0 0.114 0 0.114 0.089 0 0.024 0 0.032-0.024 0.13 0 0 0 0-1.503 4.112-0.041 0.122-0.057 0.138-0.163 0.138 0 0 0 0-0.333 0-0.073 0-0.089-0.032-0.138-0.138 0 0 0 0-1.552-4.095-0.024-0.049-0.032-0.089-0.032-0.122 0-0.114 0.081-0.114 0.114-0.114zM37.206 27.32c0.593 0 1.154 0.187 1.154 0.52 0 0.228-0.187 0.301-0.317 0.301-0.26 0-0.39-0.325-0.886-0.325-0.487 0-0.739 0.325-0.739 0.65 0 0.967 2.105 0.732 2.105 2.186 0 0.926-0.797 1.341-1.577 1.333-0.691 0-1.381-0.301-1.381-0.658 0-0.22 0.187-0.284 0.325-0.284 0.293 0 0.463 0.447 1.073 0.447 0.601 0 0.878-0.398 0.878-0.756 0-0.455-0.455-0.65-0.951-0.861-0.634-0.268-1.154-0.585-1.154-1.325 0-0.797 0.699-1.227 1.471-1.227zM28.251 27.295c0.601 0 1.121 0.13 1.121 0.447 0 0.26-0.162 0.39-0.374 0.382-0.301 0-0.382-0.406-0.926-0.406-0.26 0-0.439 0.155-0.439 0.39 0 0 0 0 0 3.592 0 0.13-0.049 0.138-0.154 0.138 0 0 0 0-0.431 0-0.13 0-0.179-0.008-0.179-0.138 0 0 0 0 0-3.925 0-0.138 0.106-0.276 0.406-0.349 0.228-0.057 0.512-0.13 0.975-0.13zM24.366 27.799c-0.284 0-0.504 0.065-0.732 0.284-0.236 0.228-0.406 0.756-0.406 1.568 0 0.821 0.171 1.333 0.406 1.56 0.228 0.219 0.431 0.276 0.732 0.276 0.309 0 0.528-0.057 0.756-0.276 0.244-0.228 0.398-0.756 0.398-1.56 0-0.829-0.154-1.341-0.398-1.568-0.228-0.22-0.447-0.284-0.756-0.284zM20.043 27.295c1.707 0 1.723 0.902 1.723 1.422 0 0 0 0 0 2.966 0 0.081 0 0.163-0.081 0.179 0 0 0 0-0.471 0-0.146 0-0.195-0.016-0.195-0.179 0 0 0 0 0-2.869 0-0.406 0-1.056-0.999-1.056-0.593 0-0.918 0.203-0.918 0.39 0 0 0 0 0 3.535 0 0.163-0.057 0.179-0.179 0.179 0 0 0 0-0.422 0-0.138 0-0.171-0.016-0.171-0.163 0 0 0 0 0-3.836 0-0.154 0.097-0.26 0.39-0.358 0.236-0.073 0.674-0.211 1.325-0.211zM13.899 27.799c-0.301 0-0.528 0.065-0.756 0.284-0.236 0.228-0.398 0.756-0.398 1.568 0 0.821 0.162 1.333 0.398 1.56 0.244 0.219 0.455 0.276 0.756 0.276 0.293 0 0.512-0.057 0.739-0.276 0.244-0.228 0.406-0.756 0.406-1.56 0-0.829-0.163-1.341-0.406-1.568-0.228-0.22-0.431-0.284-0.739-0.284zM6.065 27.799c-0.293 0-0.512 0.065-0.74 0.284-0.244 0.228-0.406 0.756-0.406 1.568 0 0.821 0.162 1.333 0.406 1.56 0.228 0.219 0.439 0.276 0.74 0.276s0.52-0.057 0.747-0.276c0.244-0.228 0.398-0.756 0.398-1.56 0-0.829-0.163-1.341-0.398-1.568-0.236-0.22-0.447-0.284-0.748-0.284zM1.734 27.295c1.723 0 1.731 0.902 1.731 1.422 0 0 0 0 0 2.966 0 0.081-0.008 0.163-0.089 0.179 0 0 0 0-0.48 0-0.146 0-0.195-0.016-0.195-0.179 0 0 0 0 0-2.869 0-0.406 0-1.056-1-1.056-0.601 0-0.926 0.203-0.926 0.39 0 0 0 0 0 3.535 0 0.163-0.057 0.179-0.179 0.179 0 0 0 0-0.431 0-0.122 0-0.154-0.016-0.154-0.163 0 0 0 0 0-3.836 0-0.154 0.097-0.26 0.382-0.358 0.252-0.073 0.683-0.211 1.341-0.211zM31.574 27.848c-0.788 0-1.357 0.699-1.357 1.747 0 1.195 0.585 1.885 1.414 1.885 0.382 0 0.748-0.122 0.748-0.341h0.008c0 0 0 0 0-3.015-0.17-0.138-0.374-0.276-0.812-0.276zM39.286 25.784c0 0 0 0 0.455 0 0.097 0 0.154 0 0.154 0.13 0 0 0 0 0 5.818 0 0.122-0.049 0.122-0.154 0.122 0 0 0 0-0.455 0-0.114 0-0.138-0.016-0.138-0.13 0 0 0 0 0-5.794 0-0.13 0.049-0.146 0.138-0.146zM34.54 25.735c0.228 0 0.431 0.171 0.447 0.431 0.008 0.244-0.171 0.471-0.463 0.48-0.284 0-0.455-0.203-0.455-0.447 0-0.26 0.195-0.463 0.471-0.463zM43.504 23.63c0.748 0 1.365 0.626 1.365 1.382s-0.601 1.381-1.365 1.381c-0.756 0-1.365-0.609-1.365-1.381 0-0.764 0.609-1.382 1.365-1.382zM43.504 23.874c-0.642 0-1.146 0.504-1.138 1.138 0 0.634 0.504 1.162 1.138 1.162s1.146-0.528 1.146-1.162c0-0.634-0.52-1.138-1.146-1.138zM42.919 24.28c0 0 0 0 0.528 0 0.163 0 0.358 0 0.48 0.114 0.081 0.057 0.138 0.171 0.138 0.293 0 0.13-0.065 0.293-0.219 0.366l-0.179 0.049-0.016-0.016c0 0.016 0 0.016 0 0.016h0.016l0.114 0.081c0.049 0.057 0.114 0.138 0.203 0.284 0 0 0 0 0.179 0.293 0 0 0 0-0.284 0 0 0 0 0-0.13-0.228-0.171-0.325-0.244-0.398-0.439-0.398 0 0 0 0-0.138 0 0 0 0 0 0 0.634 0 0 0 0-0.252 0v-1.487zM43.155 24.483v0.447c0 0 0 0 0.293 0 0.106 0 0.341 0 0.341-0.219 0-0.228-0.228-0.228-0.366-0.228 0 0 0 0-0.268 0zM9.681 4.567c0.073-0.008 0.162 0.097 0.236 0.301 0.146 0.398 0.788 2.007 2.454 2.6 1.65 0.593 3.137 0.114 4.177-0.756 0.39-0.309 0.52-0.13 0.171 0.439-0.463 0.756-1.211 1.186-2.072 1.658-0.171 0.097-0.374 0.179 0.024 0.366 2.3 1.073 5.299 1.828 7.964 1.828 1.983 0 3.901-0.309 4.916-0.382 0.975-0.073 2.836-0.008 3.283 2.137 0.317 1.52 0.293 5.964 0.276 10.214 0 0.301 0.024 0.48-0.317 0.48-1.105-0.008-1.146 0.041-1.243 0.317-0.163 0.455-0.203 0.683-0.325 1.154-0.098 0.39-0.171 0.528-0.431 0.528-0.284 0-1.243 0-1.365 0-0.22 0-0.325-0.252-0.146-0.593 1.764-3.169 1.625-5.631 0.593-6.98-0.325 1.251-0.463 1.804-0.626 1.926-2.129 1.609-3.21 5.030-3.299 5.306-0.097 0.252-0.228 0.349-0.561 0.349-0.219 0-1.3 0-1.512 0-0.439 0-0.414-0.309-0.154-0.609 2.365-2.527 2.966-3.47 3.657-5.615 0.699-2.154-0.935-2.836-2.186-1.715-3.251-1.479-4.112 0.455-3.917 1.536 0.301 1.715 1.455 4.624 1.528 5.997 0.024 0.349-0.276 0.422-0.463 0.422-0.162 0-1.438 0-1.438 0-0.447 0-0.268-0.431-0.235-0.626 0.731-3.535-0.764-5.55-2.267-6.493-0.894 0.658-2.080 4.518-2.227 6.623-0.016 0.252-0.155 0.479-0.366 0.479-0.195 0-1.357 0-1.674 0-0.268 0-0.317-0.301-0.114-0.666 0.861-1.552 2.21-3.982 2.186-6.558 0-0.284 0-1.178-0.415-1.666-0.918-1.097-1.422-2.43-1.902-3.283-0.325-0.577-0.739-0.772-1.064-0.829-0.35-0.065-0.609 0.032-0.902-0.106-0.293-0.13-0.447-0.431-0.675-0.691-0.195-0.22-0.341-0.536-0.114-0.829 0.414-0.512 0.683-0.812 0.756-1.024s0.057-0.301 0.073-0.488c0.008-0.171 0.357-0.601 0.691-0.983 0.122-0.146 0.016-0.406-0.211-0.658s-0.886-1.154-0.886-2.657c0-0.301 0.057-0.439 0.122-0.455zM15.784 10.418c-0.138-0.008-0.195 0.057-0.301 0.195-1.487 2.040-1.796 3.145-1.666 3.974s0.837 1.658 1.893 2.283c1.056 0.609 1.706 0.959 2.422 1.739 0.089 0.089 0.187 0.114 0.22-0.057 0.366-2.389 2.365-2.739 4.973-2.69 3.673 0.057 4.38 1.259 4.835 1.073 0.439-0.211 0.74-2.072 0.821-3.381 0.089-1.333 0.171-2.405-1.471-2.275 0.39 0.796 0.463 1.674-0.252 2.17-0.723 0.504-1.243 0.26-1.243-0.211 0-0.414-0.065-1.081-0.585-1.69-0.252 0.032-0.455 0.057-0.707 0.081 0.154 0.715 0.341 2.040-0.203 2.576s-2.089 0.585-3.681 0.463c-0.301-0.024-0.674-0.146-0.837-0.528-0.081-0.179-0.203-0.642-0.236-2.673-0.276-0.041-0.496-0.073-0.772-0.138-0.284 1.958-0.943 2.681-1.634 2.852s-1.479 0.008-1.333-0.699c0.13-0.683 0.471-1.454 0.536-2.811-0.423-0.155-0.642-0.244-0.78-0.252zM26.966 11.344c-0.317 0.032-0.618 0.073-0.91 0.122 0.333 0.48 0.52 1.008 0.536 1.714 0.097 0.041 0.553-0.146 0.658-0.471 0.098-0.333 0.073-0.707-0.284-1.365zM17.19 10.872c-0.098 0.772-0.26 1.723-0.431 2.283-0.179 0.561 0.309 0.512 0.528 0.423 0.293-0.122 0.837-0.618 1.122-2.381-0.407-0.097-0.813-0.203-1.219-0.325zM20.343 11.547c0.041 0.609 0.049 1.528 0.146 2.024 0.089 0.431 0.252 0.455 0.414 0.479 0.593 0.089 2.666 0.179 3.129-0.284 0.284-0.293 0.309-1.308 0.106-2.088-1.251 0.073-2.536 0.041-3.795-0.13zM11.632 8.459c-0.106 0.016-0.195 0.073-0.293 0.154-0.333 0.301-0.683 0.772-0.739 0.926-0.073 0.155-0.032 0.528-0.179 0.723-0.13 0.187-0.471 0.642-0.471 0.642-0.293 0.366-0.155 0.39 0.162 0.772 0.284 0.357 0.951-0.114 1.723 0.496 0.39 0.309 0.861 1.455 1.203 1.91 0.26-1.633 1.284-2.958 1.585-3.462 0.496-0.78 0.049-0.593-1.389-1.471-0.894-0.536-1.3-0.756-1.601-0.691zM11.867 9.491c0.122 0 0.211 0.016 0.228 0.057 0.057 0.146-0.634 0.999-0.992 0.48-0.26-0.374 0.398-0.545 0.764-0.536zM29.86 14.684c-0.041 0.008-0.073 0.032-0.073 0.081-0.090 1.17-0.35 2.576-0.26 3.031 0.081 0.487 0.358 1.658 0.414 2.169 0.049 0.398 0.228 0.244 0.252 0.049 0.106-0.788 0.276-4.754-0.22-5.274-0.032-0.041-0.081-0.057-0.114-0.057zM13.899 0.008c1.869 0 3.372 1.511 3.372 3.38 0 1.861-1.503 3.389-3.372 3.389-1.853 0-3.372-1.512-3.372-3.389 0-1.853 1.503-3.38 3.372-3.38zM13.997 0.804c-1.235 0-2.243 0.991-2.243 2.235 0 1.235 1.008 2.235 2.243 2.235 1.243 0 2.235-0.999 2.235-2.235 0-1.227-0.992-2.235-2.235-2.235z"></path>
</svg>
